<svg width="22" height="21" viewBox="0 0 22 21" fill="none" xmlns="http://www.w3.org/2000/svg">
<path d="M12 5.5L10.8845 3.26892C10.5634 2.6268 10.4029 2.30573 10.1634 2.07116C9.95158 1.86373 9.69632 1.70597 9.41607 1.60931C9.09916 1.5 8.74021 1.5 8.02229 1.5H4.2C3.0799 1.5 2.51984 1.5 2.09202 1.71799C1.71569 1.90973 1.40973 2.21569 1.21799 2.59202C1 3.01984 1 3.5799 1 4.7V5.5M1 5.5H16.2C17.8802 5.5 18.7202 5.5 19.362 5.82698C19.9265 6.1146 20.3854 6.57354 20.673 7.13803C21 7.77976 21 8.61984 21 10.3V14.7C21 16.3802 21 17.2202 20.673 17.862C20.3854 18.4265 19.9265 18.8854 19.362 19.173C18.7202 19.5 17.8802 19.5 16.2 19.5H5.8C4.11984 19.5 3.27976 19.5 2.63803 19.173C2.07354 18.8854 1.6146 18.4265 1.32698 17.862C1 17.2202 1 16.3802 1 14.7V5.5ZM12.5 10L14.5 12.5M14.5 12.5L12.5 15M14.5 12.5H10.5H9" stroke="#415472" stroke-width="2" stroke-linecap="round" stroke-linejoin="round"/>
</svg>
