<svg width="32" height="18" viewBox="0 0 32 18" fill="none" xmlns="http://www.w3.org/2000/svg">
<rect width="32" height="18" rx="9" fill="#F4F6FF"/>
<path d="M16 10C16.5523 10 17 9.55228 17 9C17 8.44772 16.5523 8 16 8C15.4477 8 15 8.44772 15 9C15 9.55228 15.4477 10 16 10Z" stroke="#415472" stroke-width="2" stroke-linecap="round" stroke-linejoin="round"/>
<path d="M23 10C23.5523 10 24 9.55228 24 9C24 8.44772 23.5523 8 23 8C22.4477 8 22 8.44772 22 9C22 9.55228 22.4477 10 23 10Z" stroke="#415472" stroke-width="2" stroke-linecap="round" stroke-linejoin="round"/>
<path d="M9 10C9.55228 10 10 9.55228 10 9C10 8.44772 9.55228 8 9 8C8.44772 8 8 8.44772 8 9C8 9.55228 8.44772 10 9 10Z" stroke="#415472" stroke-width="2" stroke-linecap="round" stroke-linejoin="round"/>
</svg>
