<svg width="16" height="16" viewBox="0 0 16 16" fill="none" xmlns="http://www.w3.org/2000/svg">
<path d="M7.26201 2.47597H4.33974C3.17072 2.47597 2.58621 2.47597 2.13971 2.70348C1.74695 2.9036 1.42763 3.22292 1.22751 3.61568C1 4.06218 1 4.64669 1 5.81571V11.6603C1 12.8293 1 13.4138 1.22751 13.8603C1.42763 14.2531 1.74695 14.5724 2.13971 14.7725C2.58621 15 3.17072 15 4.33974 15H10.1843C11.3533 15 11.9378 15 12.3843 14.7725C12.7771 14.5724 13.0964 14.2531 13.2965 13.8603C13.524 13.4138 13.524 12.8293 13.524 11.6603V8.73799M5.17466 10.8253H6.33977C6.68013 10.8253 6.85031 10.8253 7.01047 10.7869C7.15245 10.7528 7.28819 10.6966 7.4127 10.6203C7.55313 10.5342 7.67347 10.4139 7.91414 10.1732L14.5677 3.51964C15.1441 2.94324 15.1441 2.0087 14.5677 1.4323C13.9913 0.8559 13.0568 0.855899 12.4804 1.4323L5.82678 8.08586C5.58611 8.32653 5.46577 8.44687 5.37972 8.5873C5.30342 8.71181 5.2472 8.84755 5.21311 8.98954C5.17466 9.14969 5.17466 9.31987 5.17466 9.66023V10.8253Z" stroke="#415472" stroke-width="2" stroke-linecap="round" stroke-linejoin="round"/>
</svg>
