<svg width="16" height="12" viewBox="0 0 16 12" fill="none" xmlns="http://www.w3.org/2000/svg">
<path d="M1.18763 6.50941C1.09079 6.35539 1.04237 6.27837 1.01527 6.15958C0.99491 6.07036 0.99491 5.92964 1.01527 5.84042C1.04237 5.72163 1.09079 5.64462 1.18763 5.49059C1.98789 4.21774 4.36992 1 8 1C11.6301 1 14.0121 4.21774 14.8124 5.49059C14.9092 5.64462 14.9576 5.72163 14.9847 5.84042C15.0051 5.92964 15.0051 6.07036 14.9847 6.15958C14.9576 6.27837 14.9092 6.35538 14.8124 6.50941C14.0121 7.78226 11.6301 11 8 11C4.36992 11 1.98789 7.78226 1.18763 6.50941Z" stroke="#415472" stroke-linecap="round" stroke-linejoin="round"/>
<path d="M8 8.14286C9.17816 8.14286 10.1332 7.18347 10.1332 6C10.1332 4.81653 9.17816 3.85714 8 3.85714C6.82184 3.85714 5.86675 4.81653 5.86675 6C5.86675 7.18347 6.82184 8.14286 8 8.14286Z" stroke="#415472" stroke-linecap="round" stroke-linejoin="round"/>
</svg>
