<svg width="36" height="37" viewBox="0 0 36 37" fill="none" xmlns="http://www.w3.org/2000/svg">
<rect y="0.5" width="36" height="36" rx="18" fill="#F4F6FF"/>
<path d="M19 13.5L17.8845 11.2689C17.5634 10.6268 17.4029 10.3057 17.1634 10.0712C16.9516 9.86373 16.6963 9.70597 16.4161 9.60931C16.0992 9.5 15.7402 9.5 15.0223 9.5H11.2C10.0799 9.5 9.51984 9.5 9.09202 9.71799C8.71569 9.90973 8.40973 10.2157 8.21799 10.592C8 11.0198 8 11.5799 8 12.7V13.5M8 13.5H23.2C24.8802 13.5 25.7202 13.5 26.362 13.827C26.9265 14.1146 27.3854 14.5735 27.673 15.138C28 15.7798 28 16.6198 28 18.3V22.7C28 24.3802 28 25.2202 27.673 25.862C27.3854 26.4265 26.9265 26.8854 26.362 27.173C25.7202 27.5 24.8802 27.5 23.2 27.5H12.8C11.1198 27.5 10.2798 27.5 9.63803 27.173C9.07354 26.8854 8.6146 26.4265 8.32698 25.862C8 25.2202 8 24.3802 8 22.7V13.5ZM19.5 18L21.5 20.5M21.5 20.5L19.5 23M21.5 20.5H17.5H16" stroke="#415472" stroke-width="2" stroke-linecap="round" stroke-linejoin="round"/>
</svg>
