<svg width="24" height="24" viewBox="0 0 24 24" fill="none" xmlns="http://www.w3.org/2000/svg">
<path d="M3.2 18.6V18.38C3.2 16.5318 3.2 15.6077 3.55968 14.9018C3.87606 14.2809 4.3809 13.7761 5.00183 13.4597C5.70774 13.1 6.63183 13.1 8.48 13.1H15.52C17.3682 13.1 18.2923 13.1 18.9982 13.4597C19.6191 13.7761 20.1239 14.2809 20.4403 14.9018C20.8 15.6077 20.8 16.5318 20.8 18.38V18.6M3.2 18.6C1.98497 18.6 1 19.585 1 20.8C1 22.015 1.98497 23 3.2 23C4.41503 23 5.4 22.015 5.4 20.8C5.4 19.585 4.41503 18.6 3.2 18.6ZM20.8 18.6C19.585 18.6 18.6 19.585 18.6 20.8C18.6 22.015 19.585 23 20.8 23C22.015 23 23 22.015 23 20.8C23 19.585 22.015 18.6 20.8 18.6ZM12 18.6C10.785 18.6 9.8 19.585 9.8 20.8C9.8 22.015 10.785 23 12 23C13.215 23 14.2 22.015 14.2 20.8C14.2 19.585 13.215 18.6 12 18.6ZM12 18.6V7.6M5.4 7.6H18.6C19.6251 7.6 20.1376 7.6 20.5419 7.43254C21.081 7.20925 21.5092 6.78097 21.7325 6.2419C21.9 5.83761 21.9 5.32507 21.9 4.3C21.9 3.27493 21.9 2.76239 21.7325 2.3581C21.5092 1.81903 21.081 1.39075 20.5419 1.16747C20.1376 1 19.6251 1 18.6 1H5.4C4.37493 1 3.86239 1 3.4581 1.16747C2.91903 1.39075 2.49075 1.81903 2.26747 2.3581C2.1 2.76239 2.1 3.27493 2.1 4.3C2.1 5.32507 2.1 5.83761 2.26747 6.2419C2.49075 6.78097 2.91903 7.20925 3.4581 7.43254C3.86239 7.6 4.37493 7.6 5.4 7.6Z" stroke="#FFC700" stroke-width="2" stroke-linecap="round" stroke-linejoin="round"/>
</svg>
