<svg width="40" height="32" viewBox="0 0 40 32" fill="none" xmlns="http://www.w3.org/2000/svg">
<rect width="40" height="32" rx="16" fill="#F4F6FF"/>
<path d="M16 12.1611C16 11.6293 16 11.3634 16.1141 11.2168C16.2135 11.0891 16.3654 11.0101 16.5299 11.0006C16.7187 10.9896 16.9464 11.1371 17.4017 11.4321L23.3271 15.271C23.7033 15.5147 23.8915 15.6366 23.957 15.7902C24.0143 15.9245 24.0143 16.0755 23.957 16.2098C23.8915 16.3634 23.7033 16.4853 23.3271 16.729L17.4017 20.5679C16.9464 20.8629 16.7187 21.0104 16.5299 20.9994C16.3654 20.9899 16.2135 20.9109 16.1141 20.7832C16 20.6366 16 20.3707 16 19.8389V12.1611Z" fill="#415472" stroke="#415472" stroke-linecap="round" stroke-linejoin="round"/>
</svg>
