<svg width="32" height="32" viewBox="0 0 32 32" fill="none" xmlns="http://www.w3.org/2000/svg">
<rect width="32" height="32" rx="16" fill="#F4F6FF"/>
<path d="M12 12.1611C12 11.6293 12 11.3634 12.1141 11.2168C12.2135 11.0891 12.3654 11.0101 12.5299 11.0006C12.7187 10.9896 12.9464 11.1371 13.4017 11.4321L19.3271 15.271C19.7033 15.5147 19.8915 15.6366 19.957 15.7902C20.0143 15.9245 20.0143 16.0755 19.957 16.2098C19.8915 16.3634 19.7033 16.4853 19.3271 16.729L13.4017 20.5679C12.9464 20.8629 12.7187 21.0104 12.5299 20.9994C12.3654 20.9899 12.2135 20.9109 12.1141 20.7832C12 20.6366 12 20.3707 12 19.8389V12.1611Z" fill="#415472" stroke="#415472" stroke-linecap="round" stroke-linejoin="round"/>
</svg>
