<svg width="20" height="20" viewBox="0 0 20 20" fill="none" xmlns="http://www.w3.org/2000/svg">
<path d="M5 1V4.4C5 4.96005 5 5.24008 5.10899 5.45399C5.20487 5.64215 5.35785 5.79513 5.54601 5.89101C5.75992 6 6.03995 6 6.6 6H13.4C13.9601 6 14.2401 6 14.454 5.89101C14.6422 5.79513 14.7951 5.64215 14.891 5.45399C15 5.24008 15 4.96005 15 4.4V2M15 19V12.6C15 12.0399 15 11.7599 14.891 11.546C14.7951 11.3578 14.6422 11.2049 14.454 11.109C14.2401 11 13.9601 11 13.4 11H6.6C6.03995 11 5.75992 11 5.54601 11.109C5.35785 11.2049 5.20487 11.3578 5.10899 11.546C5 11.7599 5 12.0399 5 12.6V19M19 7.32548V14.2C19 15.8802 19 16.7202 18.673 17.362C18.3854 17.9265 17.9265 18.3854 17.362 18.673C16.7202 19 15.8802 19 14.2 19H5.8C4.11984 19 3.27976 19 2.63803 18.673C2.07354 18.3854 1.6146 17.9265 1.32698 17.362C1 16.7202 1 15.8802 1 14.2V5.8C1 4.11984 1 3.27976 1.32698 2.63803C1.6146 2.07354 2.07354 1.6146 2.63803 1.32698C3.27976 1 4.11984 1 5.8 1H12.6745C13.1637 1 13.4083 1 13.6385 1.05526C13.8425 1.10425 14.0376 1.18506 14.2166 1.29472C14.4184 1.4184 14.5914 1.59135 14.9373 1.93726L18.0627 5.06274C18.4086 5.40865 18.5816 5.5816 18.7053 5.78343C18.8149 5.96237 18.8957 6.15746 18.9447 6.36154C19 6.59171 19 6.8363 19 7.32548Z" stroke="white" stroke-width="2" stroke-linecap="round" stroke-linejoin="round"/>
</svg>
