<svg width="18" height="18" viewBox="0 0 18 18" fill="none" xmlns="http://www.w3.org/2000/svg">
<path d="M5.8 10.6C5.8 10.6 7 12.2 9 12.2C11 12.2 12.2 10.6 12.2 10.6M13 6.792C12.684 7.18 12.252 7.4 11.8 7.4C11.348 7.4 10.928 7.18 10.6 6.792M7.4 6.792C7.084 7.18 6.652 7.4 6.2 7.4C5.748 7.4 5.328 7.18 5 6.792M17 9C17 13.4183 13.4183 17 9 17C4.58172 17 1 13.4183 1 9C1 4.58172 4.58172 1 9 1C13.4183 1 17 4.58172 17 9Z" stroke="#415472" stroke-width="2" stroke-linecap="round" stroke-linejoin="round"/>
</svg>
