<svg width="22" height="22" viewBox="0 0 22 22" fill="none" xmlns="http://www.w3.org/2000/svg">
<path d="M16 1L16 12M21 10L21 3C21 1.89543 20.1046 1 19 1L5.57376 1C4.09304 1 2.8338 2.08033 2.60864 3.54383L1.53172 10.5438C1.25214 12.3611 2.65818 14 4.49683 14H8C8.55228 14 9 14.4477 9 15V18.5342C9 19.896 10.104 21 11.4658 21C11.7907 21 12.085 20.8087 12.2169 20.5119L15.7361 12.5939C15.8966 12.2327 16.2547 12 16.6499 12H19C20.1046 12 21 11.1046 21 10Z" stroke="#415472" stroke-width="2" stroke-linecap="round" stroke-linejoin="round"/>
</svg>
