<svg width="22" height="22" viewBox="0 0 22 22" fill="none" xmlns="http://www.w3.org/2000/svg">
<rect width="22" height="22" fill="#1E1E1E"/>
<path d="M-23 -131C-23 -135.418 -19.4183 -139 -15 -139H759C763.418 -139 767 -135.418 767 -131V45H-23V-131Z" fill="white"/>
<rect x="-7" y="-7" width="36" height="36" rx="18" fill="#F4F6FF"/>
<path d="M11 2.5H6.3C4.61984 2.5 3.77976 2.5 3.13803 2.82698C2.57354 3.1146 2.1146 3.57354 1.82698 4.13803C1.5 4.77976 1.5 5.61984 1.5 7.3V15.7C1.5 17.3802 1.5 18.2202 1.82698 18.862C2.1146 19.4265 2.57354 19.8854 3.13803 20.173C3.77976 20.5 4.61984 20.5 6.3 20.5H15.5C16.43 20.5 16.895 20.5 17.2765 20.3978C18.3117 20.1204 19.1204 19.3117 19.3978 18.2765C19.5 17.895 19.5 17.43 19.5 16.5M17.5 7.5V1.5M14.5 4.5H20.5M9 8C9 9.10457 8.10457 10 7 10C5.89543 10 5 9.10457 5 8C5 6.89543 5.89543 6 7 6C8.10457 6 9 6.89543 9 8ZM13.49 11.4181L5.03115 19.108C4.55536 19.5406 4.31747 19.7568 4.29643 19.9442C4.27819 20.1066 4.34045 20.2676 4.46319 20.3755C4.60478 20.5 4.92628 20.5 5.56929 20.5H14.956C16.3951 20.5 17.1147 20.5 17.6799 20.2582C18.3894 19.9547 18.9547 19.3894 19.2582 18.6799C19.5 18.1147 19.5 17.3951 19.5 15.956C19.5 15.4717 19.5 15.2296 19.4471 15.0042C19.3805 14.7208 19.253 14.4554 19.0733 14.2264C18.9303 14.0442 18.7412 13.8929 18.3631 13.5905L15.5658 11.3527C15.1874 11.0499 14.9982 10.8985 14.7898 10.8451C14.6061 10.798 14.4129 10.8041 14.2325 10.8627C14.0279 10.9291 13.8486 11.0921 13.49 11.4181Z" stroke="#415472" stroke-width="2" stroke-linecap="round" stroke-linejoin="round"/>
<path d="M767 45.5H767.5V45V-131C767.5 -135.694 763.694 -139.5 759 -139.5H-15C-19.6944 -139.5 -23.5 -135.694 -23.5 -131V45V45.5H-23H767Z" stroke="#415472" stroke-opacity="0.08"/>
</svg>
